<svg width="182 " height="95" viewBox="0 0 182 95" fill="none" xmlns="http://www.w3.org/2000/svg">
<path d="M96.81 46.21C94.27 46.21 92.17 45.62 90.51 44.44C88.87 43.24 87.98 41.49 87.84 39.19H94.92C95.02 40.41 95.56 41.02 96.54 41.02C96.9 41.02 97.2 40.94 97.44 40.78C97.7 40.6 97.83 40.33 97.83 39.97C97.83 39.47 97.56 39.07 97.02 38.77C96.48 38.45 95.64 38.09 94.5 37.69C93.14 37.21 92.01 36.74 91.11 36.28C90.23 35.82 89.47 35.15 88.83 34.27C88.19 33.39 87.88 32.26 87.9 30.88C87.9 29.5 88.25 28.33 88.95 27.37C89.67 26.39 90.64 25.65 91.86 25.15C93.1 24.65 94.49 24.4 96.03 24.4C98.63 24.4 100.69 25 102.21 26.2C103.75 27.4 104.56 29.09 104.64 31.27H97.47C97.45 30.67 97.3 30.24 97.02 29.98C96.74 29.72 96.4 29.59 96 29.59C95.72 29.59 95.49 29.69 95.31 29.89C95.13 30.07 95.04 30.33 95.04 30.67C95.04 31.15 95.3 31.55 95.82 31.87C96.36 32.17 97.21 32.54 98.37 32.98C99.71 33.48 100.81 33.96 101.67 34.42C102.55 34.88 103.31 35.52 103.95 36.34C104.59 37.16 104.91 38.19 104.91 39.43C104.91 40.73 104.59 41.9 103.95 42.94C103.31 43.96 102.38 44.76 101.16 45.34C99.94 45.92 98.49 46.21 96.81 46.21ZM124.92 42.79H117.84L116.79 46H109.8L117.57 24.76H125.25L132.99 46H125.97L124.92 42.79ZM123.3 37.78L121.38 31.87L119.46 37.78H123.3ZM153.553 24.76V30.04H145.213V32.98H151.213V37.99H145.213V46H138.553V24.76H153.553ZM166.519 30.07V32.68H173.119V37.69H166.519V40.69H174.019V46H159.859V24.76H174.019V30.07H166.519Z" fill="white"/>
<path d="M95.88 68.69H104.4V74H88.5V68.99L96.9 58.04H88.5V52.76H104.4V57.77L95.88 68.69ZM121.796 74.21C119.796 74.21 117.956 73.74 116.276 72.8C114.616 71.86 113.296 70.56 112.316 68.9C111.336 67.24 110.846 65.37 110.846 63.29C110.846 61.21 111.336 59.34 112.316 57.68C113.296 56.02 114.616 54.73 116.276 53.81C117.956 52.87 119.796 52.4 121.796 52.4C123.796 52.4 125.626 52.87 127.286 53.81C128.946 54.73 130.256 56.02 131.216 57.68C132.196 59.34 132.686 61.21 132.686 63.29C132.686 65.37 132.196 67.24 131.216 68.9C130.256 70.56 128.936 71.86 127.256 72.8C125.596 73.74 123.776 74.21 121.796 74.21ZM121.796 68C123.116 68 124.136 67.58 124.856 66.74C125.576 65.88 125.936 64.73 125.936 63.29C125.936 61.83 125.576 60.68 124.856 59.84C124.136 58.98 123.116 58.55 121.796 58.55C120.456 58.55 119.426 58.98 118.706 59.84C117.986 60.68 117.626 61.83 117.626 63.29C117.626 64.73 117.986 65.88 118.706 66.74C119.426 67.58 120.456 68 121.796 68ZM159.509 74H152.849L145.799 63.32V74H139.139V52.76H145.799L152.849 63.62V52.76H159.509V74ZM173.228 58.07V60.68H179.828V65.69H173.228V68.69H180.728V74H166.568V52.76H180.728V58.07H173.228Z" fill="white"/>
<path d="M37.2164 0C31.6073 8.91046 15.7501 15.0456 0.00140991 14.4091V55.1426C-0.214323 72.3271 24.3795 88.8751 37.7551 94.3911C47.4632 89.7237 74.2144 77.2066 73.9987 50.4753V40.2919V14.4091C60.4074 13.9848 40.6681 8.69831 37.2164 0Z" fill="white"/>
<path d="M36.6725 9C28.3918 19.0135 13.444 21.3285 7 21.0852C7 26.5591 7.25648 38.4133 7.25648 41.4787C7.25648 44.5441 13.8811 48.2299 17.1935 49.6896C17.6271 49.8355 35.2005 56.684 43.933 60.09C43.933 60.455 39.0548 65.3815 37.0674 65.7464C35.4775 66.0384 16.2745 58.1258 7 54.2332C7 68.2465 27.1304 81.3167 37.0674 86C57.3027 76.0739 65.975 64.2867 65.975 50.237C62.6506 49.3611 38.2117 39.8973 26.4077 35.2749C27.6725 35.6398 37.0674 29.9834 37.0674 29.9834C37.296 29.7526 56.4244 38.0358 66 41.8675V21.0852C63.8319 21.0852 42.883 19.1861 36.6725 9Z" fill="#004790"/>
<path d="M7.25519 43.0212C6.91048 41.6722 6.91943 27.6267 7.25519 21C12.2915 30.0865 25.1376 34.1973 27.1521 35.2069L65.9567 49.9029C66.3 53.1717 64.5836 62.1178 61.3992 66L43.772 59.9423C31.6848 55.9039 8.26247 46.9632 7.25519 43.0212Z" fill="#2178DD"/>
</svg>
